<svg xmlns="http://www.w3.org/2000/svg" width="43.666" height="36.772" viewBox="0 0 43.666 36.772">
  <path id="shopping-cart-solid" d="M5.839,7a1.839,1.839,0,1,0,0,3.677H9.918l4.826,19.305a3.646,3.646,0,0,0,3.562,2.758H39.393a3.618,3.618,0,0,0,3.5-2.7l4.769-17.524H16.87l.919,3.677H42.9l-3.5,12.87H18.307L13.48,9.758A3.646,3.646,0,0,0,9.918,7ZM37.094,32.74a5.516,5.516,0,1,0,5.516,5.516A5.545,5.545,0,0,0,37.094,32.74Zm-16.547,0a5.516,5.516,0,1,0,5.516,5.516A5.545,5.545,0,0,0,20.547,32.74Zm0,3.677a1.839,1.839,0,1,1-1.839,1.839A1.815,1.815,0,0,1,20.547,36.417Zm16.547,0a1.839,1.839,0,1,1-1.839,1.839A1.815,1.815,0,0,1,37.094,36.417Z" transform="translate(-4 -7)" fill="#222"/>
</svg>
